<?xml version="1.0" encoding="utf-8"?>
<!-- Generator: Adobe Illustrator 16.0.0, SVG Export Plug-In . SVG Version: 6.00 Build 0)  -->
<!DOCTYPE svg PUBLIC "-//W3C//DTD SVG 1.1//EN" "http://www.w3.org/Graphics/SVG/1.1/DTD/svg11.dtd">
<svg version="1.1" xmlns="http://www.w3.org/2000/svg" xmlns:xlink="http://www.w3.org/1999/xlink" x="0px" y="0px"
	 width="591.34px" height="346.701px" viewBox="0 0 591.34 346.701" style="enable-background:new 0 0 591.34 346.701;"
	 xml:space="preserve">
<g id="Layer_2">
</g>
<g id="Layer_1">
	<g style="display:none;">
		<path style="display:inline;fill-rule:evenodd;clip-rule:evenodd;fill:#22B573;" d="M422.34,179.765v20
			c0,0.57-0.04,1.12-0.12,1.67c-0.81,5.84-5.819,10.33-11.88,10.33h-193c-6.63,0-12-5.37-12-12v-16c0-8.5,1.34-9.311,3.51-11.49
			c2.18-2.17,5.18-0.51,8.49-0.51h191.25l1.75-4C416.97,167.765,422.34,173.135,422.34,179.765z"/>
		<circle style="display:inline;fill-rule:evenodd;clip-rule:evenodd;fill:#CCCCCC;" cx="353.42" cy="172.345" r="10.081"/>
		<path style="display:inline;fill-rule:evenodd;clip-rule:evenodd;fill:#FFFFFF;" d="M422.34,195.326v4.439
			c0,0.57-0.04,1.12-0.12,1.67l-3.38,3.37l-6.5-6.54l-6.5,6.51l-6.48-6.47l-6.52,6.5l-6.529-6.511l-6.471,6.48l-6.5-6.49l-6.5,6.521
			l-13.08-13.04h6l7.08,7.04l6.5-6.54l6.5,6.51l3.471-3.47l3-2.99l0.029-0.03l6.5,6.521l6.5-6.54l0.04,0.04l2.989,3l3.471,3.47
			l6.5-6.49l6.5,6.521L422.34,195.326z"/>
		<polygon style="display:inline;fill-rule:evenodd;clip-rule:evenodd;fill:#22B573;" points="258,180.666 257.64,181.035 
			257.34,180.736 257.34,179.986 		"/>
		<path style="display:inline;fill-rule:evenodd;clip-rule:evenodd;fill:#22B573;" d="M331.34,172.496v8.51l-9.18-9.36l-9.22,9.17
			l-9.19-9.2l-9.24,9.2l-9.26-9.229l-9.18,9.18l-9.22-9.2l-8.51,8.75l-0.34,0.351l-0.66-0.68l-8.18-8.341l-9.22,9.17l-9.19-9.2
			l-9.24,9.2l-9.26-9.229l-6.9,6.9c-0.01-0.16-0.01-0.311-0.01-0.471c0-3.221,0.45-6.34,1.29-9.29l5.62-5.62l0.04-0.05l9.22,9.25
			l9.21-9.28l0.06,0.061l4.24,4.25l4.92,4.92l9.22-9.2l8.85,9.101l8.84-9.021l9.22,9.17l4.92-4.94l4.26-4.26l0.04-0.05l9.22,9.25
			l9.21-9.28l0.06,0.061l4.24,4.25l4.92,4.92l9.22-9.2L331.34,172.496z"/>
		<polygon style="display:inline;fill-rule:evenodd;clip-rule:evenodd;fill:#22B573;" points="258.34,180.315 258.34,181.005 
			258,180.666 		"/>
		<circle style="display:inline;fill-rule:evenodd;clip-rule:evenodd;fill:#4D4D4D;" cx="353.42" cy="172.345" r="6.683"/>
		<path style="display:inline;fill-rule:evenodd;clip-rule:evenodd;fill:#22B573;" d="M206.46,168.725c0,0-40.87,19.29-34.87,46.79
			s44.75,17,62.5,31.25c0,0,8.621-11.25-10.064-20.5s-14.186-15-7.436-14.75"/>
	</g>
	<g>
		<path style="fill-rule:evenodd;clip-rule:evenodd;fill:#603813;" d="M589.439,119.395c-0.14-0.13-0.47,0.26-0.6,0.12
			c-0.03-0.02-0.53,0.32-0.19-0.17c-0.029-0.01-0.329,0.34-0.079-0.11l-0.12-0.25c0,0,0.3-0.2,0.18-0.29
			c-0.09-0.05-1.07-0.53-2.14-1.22c-0.42-0.2-0.83-0.45-1.24-0.75c-0.01,0-0.021,0.05-0.03,0.05c-0.939-0.61-1.729-1.01-1.8-1.01
			c-0.01,0-0.01,0-0.01,0c-0.2,0-0.41-0.4-0.62-0.53c-0.21-0.13-0.431-0.41-0.65-0.55c-0.43-0.26-0.859-0.52-1.24-0.77
			c-3.529-2.23-6.329-4.33-8.899-6.49c-2.75-2.35-5.19-4.7-7.851-7.31c-1.369-1.33-2.75-2.71-4.3-4.17
			c-2.479-2.39-4.26-4.43-6.51-7.05c-7.76-9-9.09-16.62-12.9-25.26c-2.75-6.3-6.96-10.02-13.17-12.72
			c-15.199-6.74-3.449-0.98-18.699-7.72c-5.061-2.26-7.891-14.36-6.211-22.11c1.2-5.5,5.811-21.06,5.811-21.06
			c-2.92-0.57-24.64,8.82-30.58,13.39c-11.22,8.64-20.52,15.73-28.68,21.89c-21.011,15.83-34.261,25.09-51.551,36.35
			c-13.479,8.78-29.339,18.7-53.229,33.82c-1.77,1.15-5.45,4.3-17.91,10.73c-24.38,12.54-48,20.16-50.53,20.96
			c-44.05,14.05-88.56,17.69-133.77,12.54c-8.51-0.97-17.06-2.25-25.62-3.8c0,0-15.82-1.74-51.54-16.72
			c-0.98-0.4-13.48-6.16-28.46-14.58c-9.84-5.54-20.74-12.23-30.18-19.37c-0.05,0-4.7-4.21-6.12-5.36
			c0,1.02,11.61,15.55,25.26,30.98c10.42,11.88,22.03,24.29,30.41,31.47c53.45,45.83,89.53,57.53,93.7,57.58
			c-1.29,2.261-10.86,16.931-11.75,18.21c-22.51,33.641-33.95,70.79-35.99,111.08c-0.26,5.67,0.93,7.71,6.83,7.49
			c10.73-0.4,21.45-0.09,32.18-0.09c13.34,0,13.25-0.04,16.58-12.67c6.51-24.43,21.49-53.061,42.41-64.54
			c39.36-21.63,71.14-13.83,115.42-10.37c4.35,0.31,5.01,2.3,5.37,6.02c1.9,20.61,6.11,39.671,13.29,59.221
			c8.16,22.25,8.11,24.55,31.51,20.12c0,0,5.86-0.08,6.65-3.761c4.08-19.38,18.04-55.68,18.04-55.76c0-1.02,6.43-16.8,15.21-31.3
			c15.02-24.82,30.01-49.55,45.029-74.33c0.71-1.19,16.23-26.23,21.41-34.7c1.11-1.78,1.78-2.8,1.78-2.8
			c1.06,0.36,2.13,0.71,3.15,1.02c0.05,0,0.229,0,0.229,0.05c23.23,5.18,49.89,7.18,56.36,7.04c5.939,0.23,32.14-2.43,39.77-5.67
			c3.101-1.28,3.221-2.04,7.07-4.71c0,0,1.54-1.26,2.61-2.39c0.01-0.01,0.029-0.03,0.05-0.06c0.439-0.47,0.8-0.9,0.91-1.22
			c0,0,0-0.01,0.01-0.01c0.03-0.08,0.05-0.16,0.05-0.22l1.38-1.82c0.03-0.02,0.03-0.04,0.04-0.05l0.66-0.87
			c1.95-2.8,3.81-5.54,5.12-7.49c0.09-0.12,0.149-0.26,0.26-0.43c0.25-0.39,0.33-1.58,0.33-2.07v-0.07
			C591.34,121.775,590.28,120.395,589.439,119.395z"/>
	</g>
	<path style="fill-rule:evenodd;clip-rule:evenodd;" d="M591.34,122.755v0.07c0,0.49-0.085,1.68-0.325,2.07
		c-0.11,0.17-0.173,0.31-0.263,0.43c-0.141,0.17-0.211,0.28-0.211,0.28c0,0.05-3.201,4.71-5.571,8.08
		c-0.01,0.01-0.015,0.03-0.035,0.05c-0.54,0.77-1.037,1.48-1.437,2.04c-0.01,0-0.009,0.01-0.009,0.01
		c-0.44,0.61-0.761,1.05-0.91,1.22c-0.021,0.03-0.039,0.05-0.049,0.06c-0.221,0.01-0.5,0-0.591-0.03c-5.359-0.54-9.6-5.06-9.6-10.51
		v-0.35c0-5.19,3.78-11.02,8.56-12.26c0.381,0.25,0.811,0.51,1.24,0.77c0.22,0.14,3.101,2.04,3.11,2.04
		c0.399,0.25,0.83,0.49,1.24,0.75c1.069,0.69,2.05,1.17,2.14,1.22c0.12,0.09,0.635,0.46,0.814,0.66
		C590.465,120.575,591.34,121.825,591.34,122.755z"/>
</g>
</svg>
